<?xml version="1.0" encoding="utf-8"?>
<!-- Generator: Adobe Illustrator 23.0.0, SVG Export Plug-In . SVG Version: 6.00 Build 0)  -->
<svg version="1.1" id="레이어_1" xmlns="http://www.w3.org/2000/svg" xmlns:xlink="http://www.w3.org/1999/xlink" x="0px"
	 y="0px" viewBox="0 0 1200 1200" style="enable-background:new 0 0 1200 1200;" xml:space="preserve">
<style type="text/css">
	.st0{fill:url(#SVGID_1_);}
	.st1{fill:url(#SVGID_2_);}
</style>
<linearGradient id="SVGID_1_" gradientUnits="userSpaceOnUse" x1="887.2097" y1="1000.014" x2="716.0062" y2="29.0713">
	<stop  offset="0" style="stop-color:#FFC968"/>
	<stop  offset="1" style="stop-color:#F56E67"/>
</linearGradient>
<path class="st0" d="M1193.64,131.73l-0.26,1.42c-0.56,2.91-1.23,5.82-1.99,8.65c-8.36,30.71-28.79,55.43-55.15,69.88
	c1.67,20.37,0.67,41.36-3.38,62.48c-4.28,22.44-11.71,43.52-21.71,62.86c-2.85,5.54-5.92,10.95-9.21,16.17
	c15.79,73.5,17.42,151.3,2.42,229.79c-4.17,21.88-9.55,43.23-16.02,64c-54.88,176.41-189.29,311.08-355.01,371.32
	c-2.89,1.07-5.77,2.07-8.68,3.09c-90.05,31.11-188.99,40.35-289.21,22.58c-0.29-1.64-0.56-3.29-0.84-4.95
	c-10.99-66.25-16.72-134.27-16.72-203.65c0-245.58,71.72-474.42,195.35-666.71c4.96-8.3,10.28-16.35,15.93-24.15
	C685.73,66.03,773.49,13.75,870.76,2.38c4.04-0.5,8.07-0.9,12.14-1.2c8.98-0.94,18.09-1.31,27.27-1.13
	c12.11,0.21,24.36,1.4,36.62,3.62c0.93,0.14,1.81,0.3,2.73,0.49c21.12,4.02,40.99,10.81,59.33,19.92
	c40.25,19.95,73.15,51.01,95.55,88.52c14.13-2.86,29.05-3.09,44.14-0.23c9.18,1.77,17.88,4.58,26.02,8.31
	C1181.36,123.74,1187.73,127.47,1193.64,131.73z"/>
<linearGradient id="SVGID_2_" gradientUnits="userSpaceOnUse" x1="382.0425" y1="1145.7164" x2="233.2131" y2="301.6629">
	<stop  offset="0" style="stop-color:#FFC968"/>
	<stop  offset="1" style="stop-color:#F56E67"/>
</linearGradient>
<path class="st1" d="M635.79,718.23c-35.78,141.74-116.38,260.25-222.87,344.33c-1.61,1.27-3.21,2.52-4.83,3.78
	c-112.93,87.37-254.15,136.37-401.57,133.74c-0.32,0-0.67-0.02-0.99-0.02c0-0.06,0.02-0.11,0.02-0.17
	c6.01-31.13,12.94-62.3,20.79-93.44c20.04-79.29,45.49-155.8,75.85-229.2c96.8-233.97,243.66-436.53,424.51-598.02
	c2.37-2.11,4.73-4.22,7.1-6.32c2.54-2.25,5.09-4.5,7.65-6.71c6.13-5.38,12.33-10.69,18.55-15.95c3.11-2.63,6.24-5.26,9.38-7.86
	c17.7,30.59,32.9,62.65,45.37,95.84c19.58,52.13,32.44,107.04,37.81,163.46C659.25,572.4,654.19,645.46,635.79,718.23z"/>
</svg>
